<svg width="1134" height="829" viewBox="0 0 1134 829" fill="none" xmlns="http://www.w3.org/2000/svg">
<g opacity="0.1">
<path d="M1054.8 684.96C1053.97 685.826 1053.06 686.62 1052.09 687.34C1021.81 709.88 985.931 722.59 948.491 726.33C933.521 727.83 922.111 726.42 906.881 723.67C905.011 723.34 901.941 723.1 899.361 722.43C897.141 721.856 894.441 721.373 891.261 720.98C888.861 720.69 886.681 719.41 884.341 719.26C877.201 718.8 874.001 724.03 869.931 729.45C868.624 731.19 867.164 733.35 865.551 735.93C856.971 749.636 847.337 761.206 836.651 770.64C813.004 791.533 785.654 806.856 754.601 816.61C748.201 818.616 741.754 820.293 735.261 821.64C718.407 825.126 702.484 826.51 687.491 825.79C682.151 825.536 677.994 825.356 675.021 825.25C669.231 825.04 663.751 823.99 658.041 823.32C656.594 823.153 654.761 822.79 652.541 822.23C650.081 821.61 647.291 821.31 645.161 820.84C621.001 815.5 597.751 806.41 576.791 793.19C575.584 792.423 573.634 790.543 570.941 787.55C568.261 784.57 558.841 790.21 555.521 792.01C553.174 793.276 550.214 795.026 546.641 797.26C533.181 805.68 519.661 812.06 503.861 816.84C485.594 822.373 466.931 825.716 447.871 826.87C438.544 827.43 431.501 827.423 426.741 826.85C418.851 825.9 410.411 825.45 403.141 824.1C348.091 813.81 298.301 784.12 266.431 737.54C263.871 733.793 261.501 729.916 259.321 725.91C256.741 721.16 253.101 717.91 247.231 719.5C240.761 721.25 234.081 723.32 227.681 724.4C224.787 724.88 221.884 725.286 218.971 725.62C213.837 726.206 208.694 726.7 203.541 727.1C201.111 727.29 198.801 727.06 196.391 726.91C188.084 726.396 179.791 725.73 171.511 724.91C166.997 724.463 160.684 723.23 152.571 721.21C95.0808 706.91 47.9008 667.86 24.1408 613.44C17.6808 598.653 13.1241 585.086 10.4708 572.74C7.83079 560.46 6.33412 552.046 5.98079 547.5C5.44746 540.613 4.52746 533.196 3.22079 525.25C1.54079 514.95 1.03079 505.45 1.00079 493.88C0.894124 458.92 0.814124 423.96 0.76079 389C0.74079 372.03 0.27079 361.77 6.70079 349.44C12.6508 338 29.6908 336.81 39.7208 343.12C48.8208 348.84 49.2608 360.34 49.2208 369.94C49.0208 413.126 49.0541 456.313 49.3208 499.5C49.4341 518.033 49.8241 531.283 50.4908 539.25C50.9641 544.916 52.5108 553.183 55.1308 564.05C62.3375 593.956 76.5775 619.606 97.8508 641C121.081 664.35 152.071 678.13 184.961 680.52C199.581 681.58 214.164 680.86 228.711 678.36C230.057 678.126 231.404 677.836 232.751 677.49C239.081 675.88 238.111 666.87 236.481 662.28C232.281 650.4 229.851 637.35 229.841 624.75C229.687 477.003 229.564 329.253 229.471 181.5C229.464 168.993 234.604 161.06 244.891 157.7C249.644 156.14 254.234 156.026 258.661 157.36C266.891 159.84 273.151 166.97 275.311 175.29C275.904 177.583 276.197 181.086 276.191 185.8C275.981 354.67 275.841 467.45 277.271 607.5C277.357 616.026 277.647 625.126 278.141 634.8C278.414 640.026 278.947 645.13 279.741 650.11C280.947 657.683 281.934 662.73 282.701 665.25C284.007 669.516 285.404 673.753 286.891 677.96C292.717 694.46 301.341 709.17 312.761 722.09C342.511 755.75 381.831 776.03 426.861 779.6C440.451 780.68 454.771 779.11 468.761 776.75C485.594 773.916 501.051 769.046 515.131 762.14C549.941 745.07 574.291 716.5 587.941 680.47C591.554 670.916 594.207 662.566 595.901 655.42C596.521 652.82 597.701 646.76 599.441 637.24C601.561 625.68 601.901 613.92 601.891 600.38C601.797 411.42 601.687 222.46 601.561 33.4997C601.561 22.6097 602.171 9.86974 613.691 4.40974C625.531 -1.20026 641.711 2.76974 645.681 16.7697C646.901 21.0597 647.421 24.1097 647.411 28.7897C647.211 220.44 648.101 412.1 648.131 603.75C648.141 617.24 647.221 631.34 646.151 644.12C645.571 651.06 644.777 656.77 643.771 661.25C642.041 668.95 640.401 676.88 638.081 684.14C630.981 706.44 620.531 725.46 607.321 743.75C603.071 749.64 600.591 753.35 607.981 757.72C637.491 775.19 671.291 782.11 705.251 778.76C753.811 773.98 797.981 754.35 825.551 712.77C844.281 684.52 853.351 652.34 854.891 618.36C855.281 609.87 855.691 601.46 855.701 592.87C855.854 456.83 855.731 320.79 855.331 184.75C855.321 180.64 855.481 174.97 857.121 170.94C860.301 163.126 866.387 158.27 875.381 156.37C885.501 154.24 896.531 160.66 899.701 170C901.161 174.28 901.911 181.57 901.911 187.06C901.971 331.373 902.057 475.69 902.171 620.01C902.177 629.043 901.904 635.696 901.351 639.97C900.424 647.056 898.787 654.153 896.441 661.26C895.301 664.73 895.191 667.57 895.851 671.58C896.311 674.413 896.557 677.72 896.591 681.5C896.597 682.1 896.917 682.393 897.551 682.38C897.698 682.377 897.842 682.338 897.97 682.266C898.097 682.194 898.204 682.093 898.281 681.97C900.487 678.496 903.807 677.24 908.241 678.2C923.651 681.54 939.471 680.79 957.001 678.73C959.401 678.443 965.221 677.12 974.461 674.76C998.947 668.506 1019.75 656.626 1036.86 639.12C1053.84 621.746 1066.03 602.206 1073.44 580.5C1076.2 572.406 1078.92 561.783 1081.61 548.63C1083.01 541.783 1084.17 532.236 1085.09 519.99C1085.53 514.11 1085.75 507.446 1085.75 500C1085.76 454.42 1085.76 408.836 1085.74 363.25C1085.74 360.363 1086.51 356.6 1088.05 351.96C1091.22 342.406 1097.71 337.45 1107.51 337.09C1121.78 336.58 1131.39 350.3 1131.86 363.5C1131.95 365.926 1131.99 371.176 1131.98 379.25C1131.96 414.75 1132.07 450.25 1132.32 485.75C1132.43 502.723 1132.26 513.473 1131.8 518C1130.86 527.24 1130.38 536.77 1129.05 545.62C1128.3 550.606 1127.52 555.59 1126.72 560.57C1125.52 568.02 1123.43 575.51 1121.67 582.99C1120.46 588.103 1117.54 596.196 1112.89 607.27C1107.18 620.883 1100.07 633.726 1091.57 645.8C1085.78 654.03 1078.66 662.44 1072.42 669.23C1067.29 674.83 1061.63 679.47 1055.87 684.36C1055.74 684.473 1055.59 684.55 1055.44 684.59C1055.19 684.656 1054.98 684.78 1054.8 684.96Z" fill="#BF833D"/>
<path d="M493.28 6.24026C501.19 0.550254 512.34 2.01026 519.85 7.15026C527.69 12.5003 529.59 25.5503 529.59 34.3603C529.75 219.4 530.05 404.45 530.04 589.5C530.03 609.82 529.94 621.01 531.85 637.7C532.42 642.73 533.66 647.69 534.71 652.72C536.583 661.767 539.046 670.654 542.1 679.38C543.06 682.134 544.273 684.757 545.74 687.25C548.43 691.84 549.55 694.79 546.37 699.12C538.12 710.37 526.99 719.12 516.22 727.96C515.98 728.153 515.674 728.245 515.369 728.215C515.064 728.185 514.784 728.036 514.59 727.8C513.123 726.014 511.8 723.98 510.62 721.7C502.726 706.454 496.54 690.54 492.06 673.96C490.96 669.9 489.89 665.834 488.85 661.76C487.85 657.88 487.35 653.59 486.56 649.5C484.833 640.58 483.97 631.58 483.97 622.5C483.916 424.58 483.656 226.664 483.19 28.7503C483.17 19.6603 485.68 11.7103 493.28 6.24026Z" fill="#BF833D"/>
<path d="M819.469 644.539C815.989 653.669 812.989 662.679 809.749 671.729C809.089 673.589 807.99 674.827 806.45 675.44C806.103 675.58 805.756 675.584 805.409 675.451C804.043 674.917 802.873 674.136 801.9 673.109C774.94 644.569 755.549 611.159 746.609 572.819C744.899 565.469 743.809 557.779 742.599 550.319C741.629 544.329 741.37 538.099 740.7 531.999C740.286 528.213 740.006 524.2 739.859 519.96C739.669 514.57 739.109 508.879 739.039 503.849C738.866 491.423 738.943 479.003 739.27 466.589C739.54 456.789 739.22 447.039 739.21 437.249C739.076 353.089 738.986 268.929 738.939 184.769C738.929 171.409 740.55 161.099 755.26 157.469C765.05 155.049 779.67 158.969 781.58 170.779C782.426 176.006 783.133 181.253 783.7 186.519C783.853 187.926 783.933 189.336 783.939 190.749C783.973 293.003 784.073 395.256 784.239 497.509C784.269 516.359 785.22 536.68 788.82 553.96C794.34 580.51 805.969 605.71 822.469 626.77C823.863 628.55 824.309 630.373 823.809 632.239C823.283 634.219 821.836 638.319 819.469 644.539Z" fill="#BF833D"/>
<path d="M347.509 653.711C342.039 660.351 336.219 667.271 329.539 673.551C328.186 674.831 326.723 675.764 325.149 676.351C324.836 676.464 324.526 676.467 324.219 676.361C323.006 675.927 322.156 675.144 321.669 674.011C315.156 659.044 310.726 645.718 308.379 634.031C307.879 631.551 309.589 628.021 311.359 625.721C322.593 611.134 331.109 595.077 336.909 577.551C340.683 566.144 342.919 557.754 343.619 552.381C344.239 547.661 345.329 542.491 345.859 538.341C347.253 527.508 347.953 517.311 347.959 507.751C347.999 460.277 347.929 351.361 347.749 181.001C347.739 171.781 351.369 161.951 360.499 159.151C373.399 155.201 388.879 159.461 391.119 174.691C391.759 179.001 392.129 183.031 392.129 187.611C392.129 292.411 392.256 397.207 392.509 502.001C392.549 518.481 391.726 533.481 390.039 547.001C387.299 568.871 381.089 591.001 372.269 611.301C369.916 616.707 366.136 624.024 360.929 633.251C357.729 638.924 355.319 642.971 353.699 645.391C351.773 648.264 349.709 651.038 347.509 653.711Z" fill="#BF833D"/>
</g>
</svg>
